<svg width="20" height="22" viewBox="0 0 20 22" fill="none" xmlns="http://www.w3.org/2000/svg">
<ellipse cx="9.84375" cy="11.1592" rx="9.75" ry="10.5455" fill="white"/>
<path fill-rule="evenodd" clip-rule="evenodd" d="M9.64062 3.25C9.17428 3.25 8.80534 3.33285 8.51735 3.48675C8.41243 3.54283 8.31258 3.60899 8.23212 3.66336L8.17225 3.70399C8.11197 3.74498 8.06125 3.77947 8.00799 3.81276C7.87017 3.89893 7.81796 3.9081 7.81282 3.909C7.81239 3.90907 7.81262 3.909 7.81282 3.909C7.13973 3.909 6.59375 4.49926 6.59375 5.22727H5.98438C4.97473 5.22727 4.15625 6.11253 4.15625 7.20455V16.4318C4.15625 17.5238 4.97473 18.4091 5.98438 18.4091H13.2969C14.3065 18.4091 15.125 17.5238 15.125 16.4318V7.20455C15.125 6.11253 14.3065 5.22727 13.2969 5.22727H12.6875C12.6875 4.49926 12.1418 3.90909 11.4688 3.90909C11.469 3.90909 11.4692 3.90917 11.4688 3.90909C11.4636 3.90819 11.4111 3.89893 11.2733 3.81276C11.22 3.77947 11.1693 3.74498 11.109 3.70398L11.0491 3.66336C10.9687 3.60899 10.8688 3.54283 10.7639 3.48675C10.4759 3.33285 10.107 3.25 9.64062 3.25ZM12.5245 6.54545C12.3137 6.93946 11.9199 7.20455 11.4688 7.20455H7.8125C7.36139 7.20455 6.96752 6.93946 6.7568 6.54545H5.98438C5.64783 6.54545 5.375 6.84054 5.375 7.20455V16.4318C5.375 16.7958 5.64783 17.0909 5.98438 17.0909H13.2969C13.6334 17.0909 13.9062 16.7958 13.9062 16.4318V7.20455C13.9062 6.84054 13.6334 6.54545 13.2969 6.54545H12.5245ZM9.05722 4.66855C9.13033 4.62949 9.3009 4.56818 9.64062 4.56818C9.98035 4.56818 10.1509 4.62949 10.224 4.66855C10.27 4.6931 10.3253 4.72857 10.4033 4.78128L10.4487 4.8121C10.512 4.85517 10.5884 4.90714 10.6633 4.95401C10.8418 5.06559 11.1295 5.22727 11.4688 5.22727V5.88636H7.8125V5.22727C8.15172 5.22727 8.43942 5.06559 8.61791 4.95401C8.69287 4.90714 8.76924 4.85517 8.83253 4.8121L8.8779 4.78128C8.95591 4.72857 9.01128 4.6931 9.05722 4.66855Z" fill="#00D282"/>
</svg>
