<svg width="20" height="20" viewBox="0 0 20 20" fill="none" xmlns="http://www.w3.org/2000/svg">
<path d="M8.33333 14.1666H7.5V7.91658L11.8485 14.4393C12.2392 15.0254 12.9561 15.3026 13.6395 15.1317L13.8511 15.0788C14.0365 15.0324 14.1667 14.8658 14.1667 14.6746V5.83325C14.1667 5.83325 15 5.83325 15 4.99992H12.5C11.6667 4.99992 11.6667 5.83325 11.6667 5.83325H12.5V10.8333L8.45797 5.1744C8.37975 5.0649 8.25354 4.99992 8.11898 4.99992H5.83334C5 4.99992 5 5.83325 5 5.83325H5.83334V14.1666C5.83334 14.1666 5 14.1666 5 14.9999H7.5C8.33333 14.9999 8.33333 14.1666 8.33333 14.1666Z" fill="white"/>
<path fill-rule="evenodd" clip-rule="evenodd" d="M0.833336 3.33325C0.833336 1.95254 1.95262 0.833252 3.33334 0.833252H16.6667C18.0474 0.833252 19.1667 1.95254 19.1667 3.33325V16.6666C19.1667 18.0473 18.0474 19.1666 16.6667 19.1666H3.33334C1.95262 19.1666 0.833336 18.0473 0.833336 16.6666V3.33325ZM3.33334 2.49992H16.6667C17.1269 2.49992 17.5 2.87301 17.5 3.33325V16.6666C17.5 17.1268 17.1269 17.4999 16.6667 17.4999H3.33334C2.8731 17.4999 2.5 17.1268 2.5 16.6666V3.33325C2.5 2.87301 2.8731 2.49992 3.33334 2.49992Z" fill="white"/>
</svg>
